# xmcd
# Track frame offsets:
# 150
# 17712
# 38721
# 59516
# 78329
# 96019
# 109267
# 126070
# 145647
# 163341
# 181040
# 198524
#
# Disc length: 2894 seconds
# Revision: 0
# Processed by: cddbd v1.5.2PL0 Copyright (c) Steve Scherf et al.
# Submitted via: VisiTrax 2.11.0.264 - For more info visit www.synapsa.com
#
DISCID=9b0b4c0c
DTITLE=Christiaan - Hooked Downwonder
DYEAR=2009
DGENRE=
TTITLE0=Please don't think that I'm complaining
TTITLE1=Hooked
TTITLE2=Seabirds in flight
TTITLE3=Sailing again
TTITLE4=You're giving me a brain freeze
TTITLE5=I'll be waiting for you
TTITLE6=Light up the back wheels
TTITLE7=The key's in the door
TTITLE8=A dream is as good as it gets
TTITLE9=You, the passion and the dance
TTITLE10=Downwonder
TTITLE11=I'm just a little bit lovely
EXTD=
EXTT0=
EXTT1=
EXTT2=
EXTT3=
EXTT4=
EXTT5=
EXTT6=
EXTT7=
EXTT8=
EXTT9=
EXTT10=
EXTT11=
PLAYORDER=
